<svg width="32" height="32" viewBox="0 0 32 32" fill="none" xmlns="http://www.w3.org/2000/svg">
<path d="M8 9C7.44772 9 7 9.44771 7 10C7 10.5523 7.44772 11 8 11H24C24.5523 11 25 10.5523 25 10C25 9.44771 24.5523 9 24 9H8Z" fill="white"/>
<path d="M7 16C7 15.4477 7.44772 15 8 15H24C24.5523 15 25 15.4477 25 16C25 16.5523 24.5523 17 24 17H8C7.44772 17 7 16.5523 7 16Z" fill="white"/>
<path d="M8 21C7.44772 21 7 21.4477 7 22C7 22.5523 7.44772 23 8 23H24C24.5523 23 25 22.5523 25 22C25 21.4477 24.5523 21 24 21H8Z" fill="white"/>
<path fill-rule="evenodd" clip-rule="evenodd" d="M0 16C0 24.8366 7.16344 32 16 32C24.8366 32 32 24.8366 32 16C32 7.16344 24.8366 0 16 0C7.16344 0 0 7.16344 0 16ZM2 16C2 8.26801 8.26801 2 16 2C23.732 2 30 8.26801 30 16C30 23.732 23.732 30 16 30C8.26801 30 2 23.732 2 16Z" fill="white"/>
</svg>
