<svg width="24" height="24" viewBox="0 0 24 24" fill="none" xmlns="http://www.w3.org/2000/svg">
<path d="M10.3744 23.0017C10.2446 23.3477 9.75515 23.3477 9.62535 23.0017L7.60839 17.6255C7.56782 17.5173 7.4825 17.432 7.37438 17.3915L1.99813 15.3745C1.65213 15.2447 1.65213 14.7553 1.99813 14.6255L7.37438 12.6085C7.4825 12.5679 7.56782 12.4826 7.60839 12.3745L9.62535 6.99825C9.75515 6.65225 10.2446 6.65225 10.3744 6.99825L12.3913 12.3745C12.4319 12.4826 12.5172 12.5679 12.6253 12.6085L18.0016 14.6255C18.3476 14.7553 18.3476 15.2447 18.0016 15.3745L12.6253 17.3915C12.5172 17.432 12.4319 17.5173 12.3913 17.6255L10.3744 23.0017Z" fill="white"/>
<path d="M4.23464 7.35819C4.15459 7.577 3.84512 7.577 3.76507 7.35819L2.96837 5.18036C2.94308 5.11123 2.88861 5.05675 2.81948 5.03146L0.64165 4.23476C0.422835 4.15471 0.422836 3.84524 0.64165 3.7652L2.81948 2.9685C2.88861 2.94321 2.94308 2.88873 2.96837 2.8196L3.76507 0.641772C3.84512 0.422957 4.15459 0.422958 4.23464 0.641772L5.03134 2.8196C5.05663 2.88873 5.1111 2.94321 5.18023 2.9685L7.35806 3.7652C7.57688 3.84524 7.57688 4.15471 7.35806 4.23476L5.18023 5.03146C5.1111 5.05675 5.05663 5.11123 5.03134 5.18036L4.23464 7.35819Z" fill="white"/>
<path d="M18.7332 11.3933C18.651 11.6069 18.3487 11.6069 18.2665 11.3933L17.012 8.13141C16.9866 8.06539 16.9344 8.01321 16.8684 7.98782L13.6066 6.73332C13.3929 6.65114 13.3929 6.34882 13.6066 6.26664L16.8684 5.01214C16.9345 4.98675 16.9866 4.93457 17.012 4.86855L18.2665 1.60669C18.3487 1.39301 18.651 1.39301 18.7332 1.60669L19.9877 4.86855C20.0131 4.93457 20.0653 4.98675 20.1313 5.01214L23.3931 6.26664C23.6068 6.34882 23.6068 6.65114 23.3931 6.73332L20.1313 7.98782C20.0653 8.01321 20.0131 8.06539 19.9877 8.13141L18.7332 11.3933Z" fill="white"/>
</svg>
